<svg xmlns="http://www.w3.org/2000/svg" version="1.1" xmlns:xlink="http://www.w3.org/1999/xlink" xmlns:svgjs="http://svgjs.dev/svgjs" width="1500" height="1500" viewBox="0 0 1500 1500"><rect width="1500" height="1500" fill="#14293a"></rect><g transform="matrix(0.6666666666666666,0,0,0.6666666666666666,249.39393939393938,438.5856950067477)"><svg viewBox="0 0 396 247" data-background-color="#14293a" preserveAspectRatio="xMidYMid meet" height="935" width="1500" xmlns="http://www.w3.org/2000/svg" xmlns:xlink="http://www.w3.org/1999/xlink"><g id="tight-bounds" transform="matrix(1,0,0,1,0.2400000000000091,-0.09999999999999432)"><svg viewBox="0 0 395.52 247.2" height="247.2" width="395.52"><g><svg></svg></g><g><svg viewBox="0 0 395.52 247.2" height="247.2" width="395.52"><mask id="d7859fa8-1101-4043-a45f-e518e7a6c47d"><rect width="640" height="400" fill="white"></rect><g transform="matrix(1,0,0,1,74.0991625271588,37.08)"><svg viewBox="0 0 247.3216749456824 173.04" height="173.04" width="247.3216749456824"><g><svg viewBox="0 0 247.3216749456824 173.04" height="173.04" width="247.3216749456824"><g><svg viewBox="0 0 316.416 221.38223288365222" height="173.04" width="247.3216749456824"><g><svg viewBox="0 0 316.416 221.38223288365222" height="221.38223288365222" width="316.416"><g id="SvgjsG6688"><svg viewBox="0 0 316.416 221.38223288365222" height="221.38223288365222" width="316.416" id="SvgjsSvg6687"><g><svg viewBox="0 0 316.416 151.01268950028071" height="151.01268950028071" width="316.416"><g transform="matrix(1,0,0,1,0,0)"><svg width="316.416" viewBox="-3.05 -38.9 90.05 43.5" height="151.01268950028071" data-palette-color="#e9e4de"><path d="M14.45 0.6Q8.35 0.6 4.65-1.4 0.95-3.4 0.95-7.75L0.95-7.75Q0.95-9.5 1.35-10.7L1.35-10.7 6.05-10.7Q5.65-9.35 5.65-8.55L5.65-8.55Q5.65-6.05 7.88-4.75 10.1-3.45 13.9-3.45L13.9-3.45Q18.85-3.45 21.75-5.1 24.65-6.75 24.65-9.75L24.65-9.75Q24.65-11.4 23.5-12.5 22.35-13.6 20.63-14.28 18.9-14.95 15.95-15.8L15.95-15.8Q12.35-16.8 10.08-17.75 7.8-18.7 6.23-20.45 4.65-22.2 4.65-25L4.65-25Q4.65-28.25 6.63-30.48 8.6-32.7 11.83-33.8 15.05-34.9 18.75-34.9L18.75-34.9Q24.5-34.9 27.93-32.98 31.35-31.05 31.35-27.1L31.35-27.1Q31.35-25.9 31.1-24.65L31.1-24.65 26.45-24.65Q26.65-25.4 26.65-26.2L26.65-26.2Q26.65-28.4 24.63-29.63 22.6-30.85 19.2-30.85L19.2-30.85Q15-30.85 12.3-29.5 9.6-28.15 9.6-25.55L9.6-25.55Q9.6-24 10.73-22.95 11.85-21.9 13.55-21.25 15.25-20.6 18.15-19.8L18.15-19.8Q21.85-18.75 24.13-17.8 26.4-16.85 28.03-15.08 29.65-13.3 29.65-10.45L29.65-10.45Q29.65-6.65 27.53-4.17 25.4-1.7 21.95-0.55 18.5 0.6 14.45 0.6L14.45 0.6ZM48.15 0L54.2-34.3 58.95-34.3 55.6-15.4 76.8-34.3 83-34.3 67.59-20.55 77.4 0 72.15 0 63.9-17.3 54.6-9.75 52.9 0 48.15 0Z" opacity="1" transform="matrix(1,0,0,1,0,0)" fill="black" class="wordmark-text-0" id="SvgjsPath6686" stroke-width="7" stroke="black" stroke-linejoin="round"></path></svg></g></svg></g><g transform="matrix(1,0,0,1,3.5,180.7913187913307)"><svg viewBox="0 0 309.416 40.59091409232154" height="40.59091409232154" width="309.416"><g transform="matrix(1,0,0,1,0,0)"><svg width="309.416" viewBox="-1.2400000000000002 -40.69 339.44 45.4" height="40.59091409232154" data-palette-color="#e9e4de"><path d="M2.76-35.01L2.76-36.01 17.9-36.01Q21.73-36.01 24.9-34.85 28.08-33.69 30.41-31.47 32.74-29.25 34.05-25.79 35.35-22.34 35.35-17.94L35.35-17.94Q35.35-12.67 33.13-8.58 30.91-4.49 26.93-2.25 22.95 0 17.85 0L17.85 0 2.76 0 2.76-1 7.25-2.76 7.25-33.25 2.76-35.01ZM17.55-33.4L17.55-33.4 12.01-33.4 12.01-2.59 17.7-2.59Q20.17-2.59 22.4-3.54 24.63-4.49 26.38-6.3 28.13-8.11 29.16-10.99 30.2-13.87 30.2-17.46L30.2-17.46Q30.2-25.15 26.9-29.27 23.61-33.4 17.55-33.4ZM59.08-3.39L63.6-2.15 63.6-1.25 58.3 0.39Q56.74 0.73 55.66 0.04 54.59-0.66 54.59-2.34L54.59-2.34Q51.41 0.61 47.14 0.61L47.14 0.61Q43.6 0.61 41.84-1.22 40.09-3.05 40.09-5.81L40.09-5.81Q40.09-7.89 41.01-9.48 41.94-11.08 43.38-12.04 44.82-12.99 46.82-13.62 48.83-14.26 50.68-14.5 52.54-14.75 54.59-14.79L54.59-14.79 54.59-17.14Q54.59-20.56 53.51-21.9 52.44-23.24 49.95-23.24L49.95-23.24Q48.07-23.24 45.53-22.66L45.53-22.66 42.94-16.99 41.75-16.99 41.75-23.95Q43.94-24.73 46.38-25.17 48.83-25.61 50.68-25.61L50.68-25.61Q54.71-25.61 56.89-23.99 59.08-22.36 59.08-18.65L59.08-18.65 59.08-3.39ZM49.19-2.25L49.19-2.25Q50.58-2.25 52.05-2.92 53.51-3.59 54.59-4.76L54.59-4.76 54.59-12.79Q49.7-12.57 47.14-10.8 44.58-9.03 44.58-6.3L44.58-6.3Q44.58-4.2 45.92-3.22 47.26-2.25 49.19-2.25ZM82.08-23.1L74.07-21.61 74.07-8.01Q74.07-6.35 74.32-5.22 74.58-4.1 75.08-3.55 75.58-3 76.14-2.8 76.7-2.59 77.49-2.59L77.49-2.59Q78.95-2.59 79.94-2.84 80.93-3.1 82.08-3.81L82.08-3.81 82.83-2.25Q79.39 0.61 75.29 0.61L75.29 0.61Q72.9 0.61 71.24-1.28 69.58-3.17 69.58-6.59L69.58-6.59 69.58-21.61 65.03-22.85 65.03-23.85 69.77-24.85 71.58-31.59 74.07-31.59 74.07-24.85 81.22-24.85 82.08-24.56 82.08-23.1ZM105.93-3.39L110.44-2.15 110.44-1.25 105.14 0.39Q103.58 0.73 102.51 0.04 101.43-0.66 101.43-2.34L101.43-2.34Q98.26 0.61 93.99 0.61L93.99 0.61Q90.45 0.61 88.69-1.22 86.93-3.05 86.93-5.81L86.93-5.81Q86.93-7.89 87.86-9.48 88.79-11.08 90.23-12.04 91.67-12.99 93.67-13.62 95.67-14.26 97.53-14.5 99.38-14.75 101.43-14.79L101.43-14.79 101.43-17.14Q101.43-20.56 100.36-21.9 99.28-23.24 96.79-23.24L96.79-23.24Q94.91-23.24 92.38-22.66L92.38-22.66 89.79-16.99 88.59-16.99 88.59-23.95Q90.79-24.73 93.23-25.17 95.67-25.61 97.53-25.61L97.53-25.61Q101.56-25.61 103.74-23.99 105.93-22.36 105.93-18.65L105.93-18.65 105.93-3.39ZM96.04-2.25L96.04-2.25Q97.43-2.25 98.89-2.92 100.36-3.59 101.43-4.76L101.43-4.76 101.43-12.79Q96.55-12.57 93.99-10.8 91.42-9.03 91.42-6.3L91.42-6.3Q91.42-4.2 92.77-3.22 94.11-2.25 96.04-2.25ZM131.92-9.74L134.31-3.2Q138.15-2.25 140.71-2.25L140.71-2.25Q142.03-2.25 143.31-2.53 144.59-2.81 145.61-3.49 146.62-4.17 147.24-5.31 147.86-6.45 147.86-8.15L147.86-8.15Q147.86-9.28 147.55-10.27 147.23-11.25 146.39-12.23 145.54-13.21 144.1-14.22 142.66-15.23 140.42-16.46L140.42-16.46Q137.98-17.77 136.21-18.96 134.44-20.14 133.28-21.41 132.12-22.68 131.57-24.15 131.02-25.61 131.02-27.49L131.02-27.49Q131.02-36.69 142.52-36.69L142.52-36.69Q146.59-36.69 151.11-35.55L151.11-35.55 151.11-27.1 150.11-27.1 147.47-33.3Q144.88-33.84 142.81-33.84L142.81-33.84Q139.32-33.84 137.37-32.51 135.41-31.18 135.41-28.39L135.41-28.39Q135.41-27.42 135.68-26.54 135.95-25.66 136.78-24.71 137.61-23.75 139.12-22.68 140.64-21.61 143.1-20.24L143.1-20.24Q145.54-18.92 147.36-17.8 149.18-16.67 150.38-15.49 151.57-14.31 152.17-12.92 152.77-11.52 152.77-9.69L152.77-9.69Q152.77-6.76 151.79-4.8 150.82-2.83 149.17-1.62 147.52-0.42 145.32 0.1 143.13 0.61 140.71 0.61L140.71 0.61Q139.29 0.61 138.09 0.52 136.88 0.44 135.71 0.26 134.53 0.07 133.31-0.23 132.09-0.54 130.65-0.95L130.65-0.95 130.65-9.74 131.92-9.74ZM169.3 0.61L169.3 0.61Q167 0.61 164.91-0.33 162.83-1.27 161.24-2.94 159.65-4.61 158.7-7.1 157.75-9.59 157.75-12.5L157.75-12.5Q157.75-15.65 158.7-18.19 159.65-20.73 161.33-22.34 163-23.95 165.17-24.8 167.34-25.66 169.86-25.66L169.86-25.66Q173.45-25.66 176.91-24.05L176.91-24.05 176.91-16.5 175.91-16.5 173.2-23.05Q171.74-23.39 170.3-23.39L170.3-23.39Q166.46-23.39 164.63-20.56 162.8-17.72 162.8-12.5L162.8-12.5Q162.8-7.52 165.22-4.86 167.64-2.2 171.86-2.2L171.86-2.2Q173.3-2.2 174.46-2.58 175.62-2.95 177.3-3.91L177.3-3.91 178.06-2.34Q175.89-0.63 173.86-0.01 171.84 0.61 169.3 0.61ZM191.07-2.76L195.56-1 195.56 0 182.06 0 182.06-1 186.55-2.76 186.55-21.09 182.06-22.85 182.06-23.85 190.56-25.61 191.07-25.1 191.07-2.76ZM184.92-32.96L184.92-32.96Q184.92-34.23 185.81-35.12 186.7-36.01 188.02-36.01L188.02-36.01Q189.29-36.01 190.18-35.12 191.07-34.23 191.07-32.96L191.07-32.96Q191.07-31.64 190.18-30.75 189.29-29.86 188.02-29.86L188.02-29.86Q186.7-29.86 185.81-30.75 184.92-31.64 184.92-32.96ZM220.85-13.06L220.15-12.35 204.35-12.35Q204.37-9.62 205.13-7.59 205.89-5.57 207.18-4.42 208.48-3.27 210.03-2.73 211.58-2.2 213.41-2.2L213.41-2.2Q215.95-2.2 218.85-3.91L218.85-3.91 219.61-2.44Q217.56-0.63 215.51-0.01 213.46 0.61 210.84 0.61L210.84 0.61Q208.57 0.61 206.47-0.35 204.37-1.32 202.79-3.02 201.2-4.71 200.25-7.18 199.3-9.64 199.3-12.5L199.3-12.5Q199.3-15.21 199.99-17.44 200.69-19.68 201.84-21.17 202.98-22.66 204.51-23.68 206.03-24.71 207.63-25.16 209.23-25.61 210.89-25.61L210.89-25.61Q212.97-25.61 214.74-24.84 216.51-24.07 217.89-22.57 219.27-21.07 220.06-18.63 220.85-16.19 220.85-13.06L220.85-13.06ZM210.99-23.24L210.99-23.24Q208.18-23.24 206.51-21.02 204.84-18.8 204.45-14.94L204.45-14.94 216.09-14.94Q216.09-18.85 214.77-21.04 213.46-23.24 210.99-23.24ZM233.6-2.76L237.84-1 237.84 0 224.61 0 224.61-1 229.1-2.76 229.1-21.09 224.61-22.85 224.61-23.85 233.11-25.61 233.6-25.1 233.6-22.14Q235.33-23.75 237.65-24.68 239.97-25.61 242.21-25.61L242.21-25.61Q245.49-25.61 247.65-23.61 249.81-21.61 249.81-17.65L249.81-17.65 249.81-2.76 254.3-1 254.3 0 241.04 0 241.04-1 245.31-2.76 245.31-16.16Q245.31-19.68 244.06-21.04 242.8-22.41 239.75-22.41L239.75-22.41Q236.11-22.41 233.6-20.24L233.6-20.24 233.6-2.76ZM272.8-23.1L264.79-21.61 264.79-8.01Q264.79-6.35 265.05-5.22 265.31-4.1 265.81-3.55 266.31-3 266.87-2.8 267.43-2.59 268.21-2.59L268.21-2.59Q269.68-2.59 270.67-2.84 271.65-3.1 272.8-3.81L272.8-3.81 273.56-2.25Q270.12 0.61 266.02 0.61L266.02 0.61Q263.62 0.61 261.96-1.28 260.3-3.17 260.3-6.59L260.3-6.59 260.3-21.61 255.76-22.85 255.76-23.85 260.5-24.85 262.3-31.59 264.79-31.59 264.79-24.85 271.95-24.85 272.8-24.56 272.8-23.1ZM286.42-2.76L290.91-1 290.91 0 277.41 0 277.41-1 281.91-2.76 281.91-21.09 277.41-22.85 277.41-23.85 285.91-25.61 286.42-25.1 286.42-2.76ZM280.27-32.96L280.27-32.96Q280.27-34.23 281.16-35.12 282.05-36.01 283.37-36.01L283.37-36.01Q284.64-36.01 285.53-35.12 286.42-34.23 286.42-32.96L286.42-32.96Q286.42-31.64 285.53-30.75 284.64-29.86 283.37-29.86L283.37-29.86Q282.05-29.86 281.16-30.75 280.27-31.64 280.27-32.96ZM295.4-8.25L296.65-8.25 299.26-2.71Q299.58-2.51 300.04-2.36 300.51-2.2 301.04-2.08 301.58-1.95 302.14-1.88 302.7-1.81 303.24-1.81L303.24-1.81Q304.49-1.81 305.5-2.06 306.51-2.32 307.25-2.8 307.98-3.27 308.37-3.97 308.76-4.66 308.76-5.54L308.76-5.54Q308.76-6.69 307.82-7.73 306.88-8.76 305.17-9.74L305.17-9.74 302.56-11.21Q301.17-11.94 299.96-12.72 298.75-13.5 297.85-14.43 296.94-15.36 296.42-16.48 295.89-17.6 295.89-18.99L295.89-18.99Q295.89-20.68 296.55-21.92 297.21-23.17 298.43-23.99 299.65-24.8 301.37-25.21 303.1-25.61 305.19-25.61L305.19-25.61Q308.42-25.61 311.64-24.56L311.64-24.56 311.54-17.5 310.54-17.5 307.95-23.24Q307.03-23.36 306.35-23.44 305.68-23.51 305.24-23.51L305.24-23.51Q303.93-23.51 302.96-23.21 302-22.9 301.37-22.4 300.75-21.9 300.45-21.26 300.14-20.63 300.14-19.95L300.14-19.95Q300.14-19.14 300.45-18.49 300.75-17.85 301.35-17.26 301.95-16.67 302.85-16.1 303.75-15.53 304.95-14.89L304.95-14.89Q306.66-13.96 307.77-13.38 308.88-12.79 309.37-12.45L309.37-12.45Q313.2-9.89 313.2-6.54L313.2-6.54Q313.2-4.74 312.34-3.38 311.47-2.03 310.07-1.11 308.66-0.2 306.9 0.26 305.15 0.71 303.36 0.71L303.36 0.71Q302.44 0.71 301.36 0.59 300.29 0.46 299.21 0.24 298.14 0.02 297.15-0.28 296.16-0.59 295.4-0.95L295.4-0.95 295.4-8.25ZM333.44-23.1L325.43-21.61 325.43-8.01Q325.43-6.35 325.69-5.22 325.94-4.1 326.44-3.55 326.95-3 327.51-2.8 328.07-2.59 328.85-2.59L328.85-2.59Q330.31-2.59 331.3-2.84 332.29-3.1 333.44-3.81L333.44-3.81 334.2-2.25Q330.75 0.61 326.65 0.61L326.65 0.61Q324.26 0.61 322.6-1.28 320.94-3.17 320.94-6.59L320.94-6.59 320.94-21.61 316.4-22.85 316.4-23.85 321.13-24.85 322.94-31.59 325.43-31.59 325.43-24.85 332.58-24.85 333.44-24.56 333.44-23.1Z" opacity="1" transform="matrix(1,0,0,1,0,0)" fill="black" class="slogan-text-1" id="SvgjsPath6685" stroke-width="7" stroke="black" stroke-linejoin="round"></path></svg></g></svg></g></svg></g></svg></g><g></g></svg></g></svg></g></svg></g></mask><g transform="matrix(1,0,0,1,74.0991625271588,37.08)"><svg viewBox="0 0 247.3216749456824 173.04" height="173.04" width="247.3216749456824"><g><svg viewBox="0 0 247.3216749456824 173.04" height="173.04" width="247.3216749456824"><g><svg viewBox="0 0 316.416 221.38223288365222" height="173.04" width="247.3216749456824"><g><svg viewBox="0 0 316.416 221.38223288365222" height="221.38223288365222" width="316.416"><g id="textblocktransform"><svg viewBox="0 0 316.416 221.38223288365222" height="221.38223288365222" width="316.416" id="textblock"><g><svg viewBox="0 0 316.416 151.01268950028071" height="151.01268950028071" width="316.416"><g transform="matrix(1,0,0,1,0,0)"><svg width="316.416" viewBox="-3.05 -38.9 90.05 43.5" height="151.01268950028071" data-palette-color="#e9e4de"><path d="M14.45 0.6Q8.35 0.6 4.65-1.4 0.95-3.4 0.95-7.75L0.95-7.75Q0.95-9.5 1.35-10.7L1.35-10.7 6.05-10.7Q5.65-9.35 5.65-8.55L5.65-8.55Q5.65-6.05 7.88-4.75 10.1-3.45 13.9-3.45L13.9-3.45Q18.85-3.45 21.75-5.1 24.65-6.75 24.65-9.75L24.65-9.75Q24.65-11.4 23.5-12.5 22.35-13.6 20.63-14.28 18.9-14.95 15.95-15.8L15.95-15.8Q12.35-16.8 10.08-17.75 7.8-18.7 6.23-20.45 4.65-22.2 4.65-25L4.65-25Q4.65-28.25 6.63-30.48 8.6-32.7 11.83-33.8 15.05-34.9 18.75-34.9L18.75-34.9Q24.5-34.9 27.93-32.98 31.35-31.05 31.35-27.1L31.35-27.1Q31.35-25.9 31.1-24.65L31.1-24.65 26.45-24.65Q26.65-25.4 26.65-26.2L26.65-26.2Q26.65-28.4 24.63-29.63 22.6-30.85 19.2-30.85L19.2-30.85Q15-30.85 12.3-29.5 9.6-28.15 9.6-25.55L9.6-25.55Q9.6-24 10.73-22.95 11.85-21.9 13.55-21.25 15.25-20.6 18.15-19.8L18.15-19.8Q21.85-18.75 24.13-17.8 26.4-16.85 28.03-15.08 29.65-13.3 29.65-10.45L29.65-10.45Q29.65-6.65 27.53-4.17 25.4-1.7 21.95-0.55 18.5 0.6 14.45 0.6L14.45 0.6ZM48.15 0L54.2-34.3 58.95-34.3 55.6-15.4 76.8-34.3 83-34.3 67.59-20.55 77.4 0 72.15 0 63.9-17.3 54.6-9.75 52.9 0 48.15 0Z" opacity="1" transform="matrix(1,0,0,1,0,0)" fill="#e9e4de" class="wordmark-text-0" data-fill-palette-color="primary" id="text-0"></path></svg></g></svg></g><g transform="matrix(1,0,0,1,3.5,180.7913187913307)"><svg viewBox="0 0 309.416 40.59091409232154" height="40.59091409232154" width="309.416"><g transform="matrix(1,0,0,1,0,0)"><svg width="309.416" viewBox="-1.2400000000000002 -40.69 339.44 45.4" height="40.59091409232154" data-palette-color="#e9e4de"><path d="M2.76-35.01L2.76-36.01 17.9-36.01Q21.73-36.01 24.9-34.85 28.08-33.69 30.41-31.47 32.74-29.25 34.05-25.79 35.35-22.34 35.35-17.94L35.35-17.94Q35.35-12.67 33.13-8.58 30.91-4.49 26.93-2.25 22.95 0 17.85 0L17.85 0 2.76 0 2.76-1 7.25-2.76 7.25-33.25 2.76-35.01ZM17.55-33.4L17.55-33.4 12.01-33.4 12.01-2.59 17.7-2.59Q20.17-2.59 22.4-3.54 24.63-4.49 26.38-6.3 28.13-8.11 29.16-10.99 30.2-13.87 30.2-17.46L30.2-17.46Q30.2-25.15 26.9-29.27 23.61-33.4 17.55-33.4ZM59.08-3.39L63.6-2.15 63.6-1.25 58.3 0.39Q56.74 0.73 55.66 0.04 54.59-0.66 54.59-2.34L54.59-2.34Q51.41 0.61 47.14 0.61L47.14 0.61Q43.6 0.61 41.84-1.22 40.09-3.05 40.09-5.81L40.09-5.81Q40.09-7.89 41.01-9.48 41.94-11.08 43.38-12.04 44.82-12.99 46.82-13.62 48.83-14.26 50.68-14.5 52.54-14.75 54.59-14.79L54.59-14.79 54.59-17.14Q54.59-20.56 53.51-21.9 52.44-23.24 49.95-23.24L49.95-23.24Q48.07-23.24 45.53-22.66L45.53-22.66 42.94-16.99 41.75-16.99 41.75-23.95Q43.94-24.73 46.38-25.17 48.83-25.61 50.68-25.61L50.68-25.61Q54.71-25.61 56.89-23.99 59.08-22.36 59.08-18.65L59.08-18.65 59.08-3.39ZM49.19-2.25L49.19-2.25Q50.58-2.25 52.05-2.92 53.51-3.59 54.59-4.76L54.59-4.76 54.59-12.79Q49.7-12.57 47.14-10.8 44.58-9.03 44.58-6.3L44.58-6.3Q44.58-4.2 45.92-3.22 47.26-2.25 49.19-2.25ZM82.08-23.1L74.07-21.61 74.07-8.01Q74.07-6.35 74.32-5.22 74.58-4.1 75.08-3.55 75.58-3 76.14-2.8 76.7-2.59 77.49-2.59L77.49-2.59Q78.95-2.59 79.94-2.84 80.93-3.1 82.08-3.81L82.08-3.81 82.83-2.25Q79.39 0.61 75.29 0.61L75.29 0.61Q72.9 0.61 71.24-1.28 69.58-3.17 69.58-6.59L69.58-6.59 69.58-21.61 65.03-22.85 65.03-23.85 69.77-24.85 71.58-31.59 74.07-31.59 74.07-24.85 81.22-24.85 82.08-24.56 82.08-23.1ZM105.93-3.39L110.44-2.15 110.44-1.25 105.14 0.39Q103.58 0.73 102.51 0.04 101.43-0.66 101.43-2.34L101.43-2.34Q98.26 0.61 93.99 0.61L93.99 0.61Q90.45 0.61 88.69-1.22 86.93-3.05 86.93-5.81L86.93-5.81Q86.93-7.89 87.86-9.48 88.79-11.08 90.23-12.04 91.67-12.99 93.67-13.62 95.67-14.26 97.53-14.5 99.38-14.75 101.43-14.79L101.43-14.79 101.43-17.14Q101.43-20.56 100.36-21.9 99.28-23.24 96.79-23.24L96.79-23.24Q94.91-23.24 92.38-22.66L92.38-22.66 89.79-16.99 88.59-16.99 88.59-23.95Q90.79-24.73 93.23-25.17 95.67-25.61 97.53-25.61L97.53-25.61Q101.56-25.61 103.74-23.99 105.93-22.36 105.93-18.65L105.93-18.65 105.93-3.39ZM96.04-2.25L96.04-2.25Q97.43-2.25 98.89-2.92 100.36-3.59 101.43-4.76L101.43-4.76 101.43-12.79Q96.55-12.57 93.99-10.8 91.42-9.03 91.42-6.3L91.42-6.3Q91.42-4.2 92.77-3.22 94.11-2.25 96.04-2.25ZM131.92-9.74L134.31-3.2Q138.15-2.25 140.71-2.25L140.71-2.25Q142.03-2.25 143.31-2.53 144.59-2.81 145.61-3.49 146.62-4.17 147.24-5.31 147.86-6.45 147.86-8.15L147.86-8.15Q147.86-9.28 147.55-10.27 147.23-11.25 146.39-12.23 145.54-13.21 144.1-14.22 142.66-15.23 140.42-16.46L140.42-16.46Q137.98-17.77 136.21-18.96 134.44-20.14 133.28-21.41 132.12-22.68 131.57-24.15 131.02-25.61 131.02-27.49L131.02-27.49Q131.02-36.69 142.52-36.69L142.52-36.69Q146.59-36.69 151.11-35.55L151.11-35.55 151.11-27.1 150.11-27.1 147.47-33.3Q144.88-33.84 142.81-33.84L142.81-33.84Q139.32-33.84 137.37-32.51 135.41-31.18 135.41-28.39L135.41-28.39Q135.41-27.42 135.68-26.54 135.95-25.66 136.78-24.71 137.61-23.75 139.12-22.68 140.64-21.61 143.1-20.24L143.1-20.24Q145.54-18.92 147.36-17.8 149.18-16.67 150.38-15.49 151.57-14.31 152.17-12.92 152.77-11.52 152.77-9.69L152.77-9.69Q152.77-6.76 151.79-4.8 150.82-2.83 149.17-1.62 147.52-0.42 145.32 0.1 143.13 0.61 140.71 0.61L140.71 0.61Q139.29 0.61 138.09 0.52 136.88 0.44 135.71 0.26 134.53 0.07 133.31-0.23 132.09-0.54 130.65-0.95L130.65-0.95 130.65-9.74 131.92-9.74ZM169.3 0.61L169.3 0.61Q167 0.61 164.91-0.33 162.83-1.27 161.24-2.94 159.65-4.61 158.7-7.1 157.75-9.59 157.75-12.5L157.75-12.5Q157.75-15.65 158.7-18.19 159.65-20.73 161.33-22.34 163-23.95 165.17-24.8 167.34-25.66 169.86-25.66L169.86-25.66Q173.45-25.66 176.91-24.05L176.91-24.05 176.91-16.5 175.91-16.5 173.2-23.05Q171.74-23.39 170.3-23.39L170.3-23.39Q166.46-23.39 164.63-20.56 162.8-17.72 162.8-12.5L162.8-12.5Q162.8-7.52 165.22-4.86 167.64-2.2 171.86-2.2L171.86-2.2Q173.3-2.2 174.46-2.58 175.62-2.95 177.3-3.91L177.3-3.91 178.06-2.34Q175.89-0.63 173.86-0.01 171.84 0.61 169.3 0.61ZM191.07-2.76L195.56-1 195.56 0 182.06 0 182.06-1 186.55-2.76 186.55-21.09 182.06-22.85 182.06-23.85 190.56-25.61 191.07-25.1 191.07-2.76ZM184.92-32.96L184.92-32.96Q184.92-34.23 185.81-35.12 186.7-36.01 188.02-36.01L188.02-36.01Q189.29-36.01 190.18-35.12 191.07-34.23 191.07-32.96L191.07-32.96Q191.07-31.64 190.18-30.75 189.29-29.86 188.02-29.86L188.02-29.86Q186.7-29.86 185.81-30.75 184.92-31.64 184.92-32.96ZM220.85-13.06L220.15-12.35 204.35-12.35Q204.37-9.62 205.13-7.59 205.89-5.57 207.18-4.42 208.48-3.27 210.03-2.73 211.58-2.2 213.41-2.2L213.41-2.2Q215.95-2.2 218.85-3.91L218.85-3.91 219.61-2.44Q217.56-0.63 215.51-0.01 213.46 0.61 210.84 0.61L210.84 0.61Q208.57 0.61 206.47-0.35 204.37-1.32 202.79-3.02 201.2-4.71 200.25-7.18 199.3-9.64 199.3-12.5L199.3-12.5Q199.3-15.21 199.99-17.44 200.69-19.68 201.84-21.17 202.98-22.66 204.51-23.68 206.03-24.71 207.63-25.16 209.23-25.61 210.89-25.61L210.89-25.61Q212.97-25.61 214.74-24.84 216.51-24.07 217.89-22.57 219.27-21.07 220.06-18.63 220.85-16.19 220.85-13.06L220.85-13.06ZM210.99-23.24L210.99-23.24Q208.18-23.24 206.51-21.02 204.84-18.8 204.45-14.94L204.45-14.94 216.09-14.94Q216.09-18.85 214.77-21.04 213.46-23.24 210.99-23.24ZM233.6-2.76L237.84-1 237.84 0 224.61 0 224.61-1 229.1-2.76 229.1-21.09 224.61-22.85 224.61-23.85 233.11-25.61 233.6-25.1 233.6-22.14Q235.33-23.75 237.65-24.68 239.97-25.61 242.21-25.61L242.21-25.61Q245.49-25.61 247.65-23.61 249.81-21.61 249.81-17.65L249.81-17.65 249.81-2.76 254.3-1 254.3 0 241.04 0 241.04-1 245.31-2.76 245.31-16.16Q245.31-19.68 244.06-21.04 242.8-22.41 239.75-22.41L239.75-22.41Q236.11-22.41 233.6-20.24L233.6-20.24 233.6-2.76ZM272.8-23.1L264.79-21.61 264.79-8.01Q264.79-6.35 265.05-5.22 265.31-4.1 265.81-3.55 266.31-3 266.87-2.8 267.43-2.59 268.21-2.59L268.21-2.59Q269.68-2.59 270.67-2.84 271.65-3.1 272.8-3.81L272.8-3.81 273.56-2.25Q270.12 0.61 266.02 0.61L266.02 0.61Q263.62 0.61 261.96-1.28 260.3-3.17 260.3-6.59L260.3-6.59 260.3-21.61 255.76-22.85 255.76-23.85 260.5-24.85 262.3-31.59 264.79-31.59 264.79-24.85 271.95-24.85 272.8-24.56 272.8-23.1ZM286.42-2.76L290.91-1 290.91 0 277.41 0 277.41-1 281.91-2.76 281.91-21.09 277.41-22.85 277.41-23.85 285.91-25.61 286.42-25.1 286.42-2.76ZM280.27-32.96L280.27-32.96Q280.27-34.23 281.16-35.12 282.05-36.01 283.37-36.01L283.37-36.01Q284.64-36.01 285.53-35.12 286.42-34.23 286.42-32.96L286.42-32.96Q286.42-31.64 285.53-30.75 284.64-29.86 283.37-29.86L283.37-29.86Q282.05-29.86 281.16-30.75 280.27-31.64 280.27-32.96ZM295.4-8.25L296.65-8.25 299.26-2.71Q299.58-2.51 300.04-2.36 300.51-2.2 301.04-2.08 301.58-1.95 302.14-1.88 302.7-1.81 303.24-1.81L303.24-1.81Q304.49-1.81 305.5-2.06 306.51-2.32 307.25-2.8 307.98-3.27 308.37-3.97 308.76-4.66 308.76-5.54L308.76-5.54Q308.76-6.69 307.82-7.73 306.88-8.76 305.17-9.74L305.17-9.74 302.56-11.21Q301.17-11.94 299.96-12.72 298.75-13.5 297.85-14.43 296.94-15.36 296.42-16.48 295.89-17.6 295.89-18.99L295.89-18.99Q295.89-20.68 296.55-21.92 297.21-23.17 298.43-23.99 299.65-24.8 301.37-25.21 303.1-25.61 305.19-25.61L305.19-25.61Q308.42-25.61 311.64-24.56L311.64-24.56 311.54-17.5 310.54-17.5 307.95-23.24Q307.03-23.36 306.35-23.44 305.68-23.51 305.24-23.51L305.24-23.51Q303.93-23.51 302.96-23.21 302-22.9 301.37-22.4 300.75-21.9 300.45-21.26 300.14-20.63 300.14-19.95L300.14-19.95Q300.14-19.14 300.45-18.49 300.75-17.85 301.35-17.26 301.95-16.67 302.85-16.1 303.75-15.53 304.95-14.89L304.95-14.89Q306.66-13.96 307.77-13.38 308.88-12.79 309.37-12.45L309.37-12.45Q313.2-9.89 313.2-6.54L313.2-6.54Q313.2-4.74 312.34-3.38 311.47-2.03 310.07-1.11 308.66-0.2 306.9 0.26 305.15 0.71 303.36 0.71L303.36 0.71Q302.44 0.71 301.36 0.59 300.29 0.46 299.21 0.24 298.14 0.02 297.15-0.28 296.16-0.59 295.4-0.95L295.4-0.95 295.4-8.25ZM333.44-23.1L325.43-21.61 325.43-8.01Q325.43-6.35 325.69-5.22 325.94-4.1 326.44-3.55 326.95-3 327.51-2.8 328.07-2.59 328.85-2.59L328.85-2.59Q330.31-2.59 331.3-2.84 332.29-3.1 333.44-3.81L333.44-3.81 334.2-2.25Q330.75 0.61 326.65 0.61L326.65 0.61Q324.26 0.61 322.6-1.28 320.94-3.17 320.94-6.59L320.94-6.59 320.94-21.61 316.4-22.85 316.4-23.85 321.13-24.85 322.94-31.59 325.43-31.59 325.43-24.85 332.58-24.85 333.44-24.56 333.44-23.1Z" opacity="1" transform="matrix(1,0,0,1,0,0)" fill="#e9e4de" class="slogan-text-1" data-fill-palette-color="secondary" id="text-1"></path></svg></g></svg></g></svg></g></svg></g><g></g></svg></g></svg></g></svg></g><g mask="url(#d7859fa8-1101-4043-a45f-e518e7a6c47d)"><g transform="matrix(0.6452631578947368, 0, 0, 0.6452631578947368, 64.80352631578947, 1.0000000000000142)"><svg xmlns="http://www.w3.org/2000/svg" xmlns:xlink="http://www.w3.org/1999/xlink" version="1.1" x="0" y="0" viewBox="50 66 412.1 380" style="enable-background:new 0 0 512 512;" xml:space="preserve" height="380" width="412.1" class="icon-none" data-fill-palette-color="accent" id="none"><g fill="#b6c6db" data-fill-palette-color="accent"><path d="M50 326.9C50 339.7 60.7 350 73.6 350H438.5C451.3 350 462.1 339.7 462.1 326.9V306H50z" fill="#b6c6db" data-fill-palette-color="accent"></path><path d="M263.2 179.2C263.2 174.7 259.5 171 255 171S246.8 174.7 246.8 179.2 250.5 187.4 255 187.4C259.6 187.4 263.2 183.7 263.2 179.2" fill="#b6c6db" data-fill-palette-color="accent"></path><path d="M255.1 116.1C250.6 116.1 246.9 119.8 246.9 124.3S250.6 132.5 255.1 132.5 263.3 128.8 263.3 124.3C263.2 119.8 259.6 116.1 255.1 116.1" fill="#b6c6db" data-fill-palette-color="accent"></path><path d="M255.1 227.7C250.6 227.7 246.9 231.4 246.9 235.9S250.6 244.1 255.1 244.1 263.3 240.4 263.3 235.9C263.2 231.4 259.6 227.7 255.1 227.7" fill="#b6c6db" data-fill-palette-color="accent"></path><path d="M200.2 171C195.7 171 192 174.7 192 179.2S195.7 187.4 200.2 187.4 208.4 183.7 208.4 179.2C208.4 174.6 204.7 171 200.2 171" fill="#b6c6db" data-fill-palette-color="accent"></path><path d="M200.2 132.5C204.7 132.5 208.4 128.8 208.4 124.3S204.7 116.1 200.2 116.1 192 119.8 192 124.3 195.7 132.5 200.2 132.5" fill="#b6c6db" data-fill-palette-color="accent"></path><path d="M200.2 227.7C195.7 227.7 192 231.4 192 235.9S195.7 244.1 200.2 244.1 208.4 240.4 208.4 235.9 204.7 227.7 200.2 227.7" fill="#b6c6db" data-fill-palette-color="accent"></path><path d="M438.4 66H73.6C60.7 66 50.2 76.4 50 89.2V294H462V89.2C461.8 76.4 451.3 66 438.4 66M291.6 124.3C291.6 113.2 300.6 104.1 311.8 104.1S332 113.1 332 124.3 323 144.5 311.8 144.5 291.6 135.5 291.6 124.3M200.2 256.1C189 256.1 180 247.1 180 235.9S189 215.7 200.2 215.7 220.4 224.7 220.4 235.9 211.3 256.1 200.2 256.1M275.2 235.9C275.2 247.1 266.2 256.1 255.1 256.2 243.9 256.2 234.9 247.2 234.8 236.1 234.8 234.3 235 232.5 235.5 230.8L203.8 199C192.8 201 182.3 193.8 180.2 182.8 180 181.6 179.9 180.4 179.9 179.1 179.9 170.4 186 163 193 160.2V143.2C186 140.4 179.9 133 179.9 124.3 179.9 113.2 188.9 104.1 200.1 104.1S220.3 113.1 220.3 124.3C220.4 133.6 214.1 141.6 205.1 143.8V159.6C215.9 162.3 222.5 173.3 219.8 184.1 219 187.5 217.3 190.5 214.9 193L242.3 220.3C244.6 218.4 247.3 217 250.2 216.3V198.6C239.4 195.8 232.9 184.8 235.7 174S249.5 156.7 260.3 159.5 277.6 173.3 274.8 184.1C273.1 190.5 268.4 195.7 262.2 198V217C269.9 219.9 275.2 227.5 275.2 235.9M319 198.1V217C326 219.8 332.1 227.2 332.1 235.9 332.1 247 323.1 256.1 311.9 256.1 300.8 256.1 291.7 247.1 291.7 235.9 291.6 226.6 297.9 218.6 306.9 216.4V198.7C296.1 196 289.5 185 292.3 174.2 292.6 172.9 293.1 171.6 293.7 170.3L265.2 141.7C255.5 147.4 243.1 144.2 237.4 134.6 231.7 124.9 234.9 112.5 244.5 106.8 254.2 101.1 266.6 104.3 272.3 113.9 275.7 119.7 276.1 126.8 273.2 132.8L301.8 161.6C304.8 159.9 308.2 159 311.7 159 322.9 159 331.9 168 332 179.2 332.1 187.8 326 195.3 319 198.1" fill="#b6c6db" data-fill-palette-color="accent"></path><path d="M311.8 132.5C316.3 132.5 320 128.8 320 124.3S316.3 116.1 311.8 116.1 303.6 119.8 303.6 124.3 307.3 132.5 311.8 132.5" fill="#b6c6db" data-fill-palette-color="accent"></path><path d="M311.8 171C307.3 171 303.6 174.7 303.6 179.2S307.3 187.4 311.8 187.4 320 183.7 320 179.2C320 174.6 316.3 171 311.8 171" fill="#b6c6db" data-fill-palette-color="accent"></path><path d="M311.8 227.7C307.3 227.7 303.6 231.4 303.6 235.9S307.3 244.1 311.8 244.1 320 240.4 320 235.9 316.3 227.7 311.8 227.7" fill="#b6c6db" data-fill-palette-color="accent"></path><path d="M351.2 434H318V356H194V434H166.1C162.8 434 160.1 436.7 160.1 440S162.8 446 166.1 446H351.1C354.4 446 357.1 443.3 357.1 440S354.5 434 351.2 434" fill="#b6c6db" data-fill-palette-color="accent"></path></g></svg></g></g></svg></g><defs></defs></svg><rect width="395.52" height="247.2" fill="none" stroke="none" visibility="hidden"></rect></g></svg></g></svg>